After Earth CAM-CameraAngleCorrected- GLOBE.avi


Watch the new Will Smith movie ...

General

Format                                   : AVI
Format/Info                              : Audio Video Interleave
File size                                : 361 MiB
Duration                                 : 1h 33mn
Overall bit rate                         : 541 Kbps
Writing application                      : Lavf52.57.1
Writing library                          : VirtualDub build 32842/release

Video

ID                                       : 0
Format                                   : MPEG-4 Visual
Format profile                           : Simple@L3
Format settings, BVOP                    : 2
Format settings, QPel                    : No
Format settings, GMC                     : No warppoints
Format settings, Matrix                  : Default (H.263)
Muxing mode                              : Packed bitstream
Codec ID                                 : XVID
Codec ID/Hint                            : XviD
Duration                                 : 1h 33mn
Bit rate                                 : 399 Kbps
Width                                    : 640 pixels
Height                                   : 400 pixels
Display aspect ratio                     : 1.600
Frame rate                               : 30.000 fps
Color space                              : YUV
Chroma subsampling                       : 4:2:0
Bit depth                                : 8 bits
Scan type                                : Progressive
Compression mode                         : Lossy
Bits/(Pixel*Frame)                       : 0.052
Stream size                              : 267 MiB (74%)
Writing library                          : XviD 1.0.2 (UTC 2004-08-29)

Audio

ID                                       : 1
Format                                   : MPEG Audio
Format version                           : Version 1
Format profile                           : Layer 3
Mode                                     : Joint stereo
Mode extension                           : MS Stereo
Codec ID                                 : 55
Codec ID/Hint                            : MP3
Duration                                 : 1h 33mn
Bit rate mode                            : Constant
Bit rate                                 : 128 Kbps
Channel(s)                               : 2 channels
Sampling rate                            : 48.0 KHz
Compression mode                         : Lossy
Stream size                              : 85.5 MiB (24%)
Alignment                                : Aligned on interleaves
Interleave, duration                     : 24 ms (0.72 video frame)
Interleave, preload duration             : 504 ms
Writing library                          : LAME3.98.2


Plot

In the near future, Earth is devastated in an environmental cataclysm and global warming, and the human race is forced to relocate to another planet outside the Solar System, Nova Prime, abandoning the Earth forever and leaving it in its primal state.

1.000 years later, The Ranger Corps, a peacekeeping organization commanded by General Cypher Raige (Will Smith) supervises the exodus, and comes into conflict with the S'krell, alien creatures that intended to conquer Nova Prime. Their secret weapon are the Ursas, monsters that can "sense" fear, but Cypher learns how to "ghost" himself from the Ursas and leads the Ranger Corps into victory.

Meanwhile, Cypher's son, Kitai Raige (Jaden Smith), blames himself for the death of his sister, Senshi (Zoë Kravitz), at the hands of an Ursa. Not wanting to fail his father again because of her death, Kitai trains hard to become a Ranger just like Cypher. His application for the Ranger Corps is rejected due to his recklessness, and Cypher views him as a disappointment. Kitai's mother, Faia (Sophie Okonedo), convinces Cypher to take Kitai on his last voyage before retirement.


* enjoy ...
